<?xml version="1.0" encoding="UTF-8"?>
<svg version="1.1" xmlns="http://www.w3.org/2000/svg" width="200" height="200">
<path d="M0,0 L200,0 L200,200 L0,200 Z " fill="#050000" transform="translate(0,0)"/>
<path d="M0,0 L163,0 L163,103 L0,103 Z " fill="#D71F1F" transform="translate(18,19)"/>
<path d="M0,0 L103,0 L103,2 L91,2 L91,3 L88,3 L88,4 L86,4 L86,5 L84,5 L84,6 L82,6 L82,7 L80,7 L80,8 L79,8 L79,9 L78,9 L78,10 L77,10 L77,9 L76,9 L76,8 L74,8 L74,7 L73,7 L73,6 L71,6 L71,5 L69,5 L69,4 L66,4 L66,3 L62,3 L62,2 L47,2 L47,3 L43,3 L43,4 L41,4 L41,5 L39,5 L39,6 L38,6 L38,7 L36,7 L36,8 L34,8 L34,9 L33,9 L33,10 L32,10 L32,11 L31,11 L31,12 L30,12 L30,13 L29,13 L29,14 L28,14 L28,15 L27,15 L27,17 L26,17 L26,18 L25,18 L25,20 L24,20 L24,22 L23,22 L23,24 L22,24 L22,27 L21,27 L21,44 L22,44 L22,48 L23,48 L23,51 L24,51 L24,53 L25,53 L25,54 L26,54 L26,56 L27,56 L27,57 L28,57 L28,59 L29,59 L29,60 L30,60 L30,61 L31,61 L31,62 L32,62 L32,63 L33,63 L33,64 L34,64 L34,65 L35,65 L35,66 L36,66 L36,67 L37,67 L37,68 L38,68 L38,69 L39,69 L39,70 L40,70 L40,71 L41,71 L41,72 L42,72 L42,73 L43,73 L43,74 L44,74 L44,75 L45,75 L45,76 L46,76 L46,77 L47,77 L47,78 L48,78 L48,79 L49,79 L49,80 L50,80 L50,81 L51,81 L51,82 L52,82 L52,83 L53,83 L53,84 L54,84 L54,85 L55,85 L55,86 L56,86 L56,87 L57,87 L57,88 L58,88 L58,89 L59,89 L59,90 L60,90 L60,91 L61,91 L61,92 L62,92 L62,93 L63,93 L63,94 L64,94 L64,95 L65,95 L65,96 L66,96 L66,97 L67,97 L67,98 L68,98 L68,99 L70,99 L70,100 L71,100 L71,101 L82,101 L82,102 L81,102 L81,103 L0,103 Z " fill="#D61F1F" transform="translate(18,19)"/>
<path d="M0,0 L172,0 L172,1 L173,1 L173,116 L172,116 L172,117 L0,117 L0,116 L-1,116 L-1,1 L0,1 Z M4,7 L4,110 L167,110 L167,7 Z " fill="#0A0101" transform="translate(14,12)"/>
<path d="M0,0 L1,0 L1,1 L2,1 L2,3 L3,3 L3,4 L5,4 L5,5 L6,5 L6,6 L75,6 L75,13 L74,13 L74,25 L73,25 L73,27 L72,27 L72,28 L70,28 L70,29 L69,29 L69,30 L67,30 L67,32 L66,32 L66,39 L67,39 L67,40 L69,40 L69,41 L71,41 L71,42 L74,42 L74,43 L0,43 Z " fill="#D81F1F" transform="translate(0,157)"/>
<path d="M0,0 L1,0 L1,44 L-76,44 L-76,43 L-71,43 L-71,42 L-68,42 L-68,41 L-66,41 L-66,40 L-65,40 L-65,33 L-66,33 L-66,32 L-67,32 L-67,31 L-68,31 L-68,30 L-69,30 L-69,29 L-70,29 L-70,28 L-71,28 L-71,27 L-72,27 L-72,25 L-73,25 L-73,7 L-5,7 L-5,6 L-4,6 L-4,5 L-2,5 L-2,4 L-1,4 L-1,2 L0,2 Z " fill="#D81F1F" transform="translate(199,156)"/>
<path d="M0,0 L184,0 L184,125 L0,125 Z M6,3 L6,4 L5,4 L5,119 L6,119 L6,120 L178,120 L178,119 L179,119 L179,4 L178,4 L178,3 Z " fill="#CE1E1E" transform="translate(8,9)"/>
<path d="M0,0 L184,0 L184,14 L0,14 Z " fill="#D51F1F" transform="translate(8,140)"/>
<path d="M0,0 L15,0 L15,1 L19,1 L19,2 L22,2 L22,3 L24,3 L24,4 L26,4 L26,5 L27,5 L27,6 L29,6 L29,7 L30,7 L30,8 L31,8 L31,7 L32,7 L32,6 L33,6 L33,5 L35,5 L35,4 L37,4 L37,3 L39,3 L39,2 L41,2 L41,1 L44,1 L44,0 L60,0 L60,1 L64,1 L64,2 L66,2 L66,3 L68,3 L68,4 L70,4 L70,5 L72,5 L72,6 L73,6 L73,7 L74,7 L74,8 L75,8 L75,9 L77,9 L77,10 L78,10 L78,12 L79,12 L79,13 L80,13 L80,14 L81,14 L81,16 L82,16 L82,17 L83,17 L83,19 L84,19 L84,21 L85,21 L85,25 L86,25 L86,29 L85,29 L85,30 L84,30 L84,31 L82,31 L82,30 L81,30 L81,29 L80,29 L80,27 L79,27 L79,23 L78,23 L78,21 L77,21 L77,20 L76,20 L76,18 L75,18 L75,17 L74,17 L74,15 L73,15 L73,14 L72,14 L72,13 L70,13 L70,12 L69,12 L69,11 L68,11 L68,10 L66,10 L66,9 L64,9 L64,8 L62,8 L62,7 L58,7 L58,6 L46,6 L46,7 L43,7 L43,8 L41,8 L41,9 L39,9 L39,10 L37,10 L37,11 L36,11 L36,12 L35,12 L35,13 L33,13 L33,14 L32,14 L32,15 L28,15 L28,14 L27,14 L27,13 L26,13 L26,12 L25,12 L25,11 L23,11 L23,10 L22,10 L22,9 L20,9 L20,8 L17,8 L17,7 L14,7 L14,6 L2,6 L2,7 L-2,7 L-2,8 L-4,8 L-4,9 L-6,9 L-6,10 L-7,10 L-7,11 L-9,11 L-9,12 L-10,12 L-10,13 L-11,13 L-11,14 L-12,14 L-12,15 L-13,15 L-13,16 L-14,16 L-14,17 L-15,17 L-15,19 L-16,19 L-16,20 L-17,20 L-17,22 L-18,22 L-18,25 L-19,25 L-19,29 L-20,29 L-20,41 L-19,41 L-19,44 L-18,44 L-18,46 L-17,46 L-17,48 L-16,48 L-16,50 L-15,50 L-15,51 L-14,51 L-14,53 L-13,53 L-13,54 L-12,54 L-12,55 L-11,55 L-11,56 L-10,56 L-10,57 L-9,57 L-9,58 L-8,58 L-8,59 L-7,59 L-7,60 L-6,60 L-6,61 L-5,61 L-5,62 L-4,62 L-4,63 L-3,63 L-3,64 L-2,64 L-2,65 L-1,65 L-1,66 L0,66 L0,67 L1,67 L1,68 L2,68 L2,69 L3,69 L3,70 L4,70 L4,71 L5,71 L5,72 L6,72 L6,73 L7,73 L7,74 L8,74 L8,75 L9,75 L9,76 L10,76 L10,77 L11,77 L11,78 L12,78 L12,79 L13,79 L13,80 L14,80 L14,81 L15,81 L15,82 L16,82 L16,83 L17,83 L17,84 L18,84 L18,85 L19,85 L19,86 L20,86 L20,87 L21,87 L21,88 L22,88 L22,89 L23,89 L23,90 L24,90 L24,91 L25,91 L25,92 L27,92 L27,93 L33,93 L33,92 L35,92 L35,91 L37,91 L37,90 L38,90 L38,89 L39,89 L39,88 L40,88 L40,87 L41,87 L41,86 L42,86 L42,85 L43,85 L43,84 L44,84 L44,83 L45,83 L45,82 L46,82 L46,81 L47,81 L47,80 L48,80 L48,79 L49,79 L49,78 L50,78 L50,77 L51,77 L51,76 L52,76 L52,74 L53,74 L53,73 L54,73 L54,72 L55,72 L55,71 L56,71 L56,70 L58,70 L58,69 L62,69 L62,70 L63,70 L63,73 L62,73 L62,74 L61,74 L61,75 L60,75 L60,76 L59,76 L59,77 L58,77 L58,78 L57,78 L57,79 L56,79 L56,80 L55,80 L55,81 L54,81 L54,82 L53,82 L53,83 L52,83 L52,84 L51,84 L51,85 L50,85 L50,86 L49,86 L49,87 L48,87 L48,88 L47,88 L47,89 L46,89 L46,90 L45,90 L45,91 L44,91 L44,92 L43,92 L43,93 L42,93 L42,94 L41,94 L41,95 L40,95 L40,96 L39,96 L39,97 L38,97 L38,98 L35,98 L35,99 L24,99 L24,98 L23,98 L23,97 L21,97 L21,96 L20,96 L20,95 L19,95 L19,94 L18,94 L18,93 L17,93 L17,92 L16,92 L16,91 L15,91 L15,90 L14,90 L14,89 L13,89 L13,88 L12,88 L12,87 L11,87 L11,86 L10,86 L10,85 L9,85 L9,84 L8,84 L8,83 L7,83 L7,82 L6,82 L6,81 L5,81 L5,80 L4,80 L4,79 L3,79 L3,78 L2,78 L2,77 L1,77 L1,76 L0,76 L0,75 L-1,75 L-1,74 L-2,74 L-2,73 L-3,73 L-3,72 L-4,72 L-4,71 L-5,71 L-5,70 L-6,70 L-6,69 L-7,69 L-7,68 L-8,68 L-8,67 L-9,67 L-9,66 L-10,66 L-10,65 L-11,65 L-11,64 L-12,64 L-12,63 L-13,63 L-13,62 L-14,62 L-14,61 L-15,61 L-15,60 L-16,60 L-16,59 L-17,59 L-17,58 L-18,58 L-18,57 L-19,57 L-19,55 L-20,55 L-20,54 L-21,54 L-21,52 L-22,52 L-22,51 L-23,51 L-23,49 L-24,49 L-24,46 L-25,46 L-25,42 L-26,42 L-26,25 L-25,25 L-25,22 L-24,22 L-24,20 L-23,20 L-23,18 L-22,18 L-22,16 L-21,16 L-21,15 L-20,15 L-20,13 L-19,13 L-19,12 L-18,12 L-18,11 L-17,11 L-17,10 L-16,10 L-16,9 L-15,9 L-15,8 L-14,8 L-14,7 L-13,7 L-13,6 L-11,6 L-11,5 L-9,5 L-9,4 L-8,4 L-8,3 L-6,3 L-6,2 L-4,2 L-4,1 L0,1 Z " fill="#070101" transform="translate(65,21)"/>
<path d="M0,0 L36,0 L36,14 L37,14 L37,22 L38,22 L38,24 L39,24 L39,26 L40,26 L40,27 L41,27 L41,28 L-4,28 L-4,26 L-3,26 L-3,25 L-2,25 L-2,22 L-1,22 L-1,13 L0,13 Z " fill="#D71F1F" transform="translate(82,163)"/>
<path d="M0,0 L4,0 L4,1 L5,1 L5,3 L6,3 L6,4 L7,4 L7,5 L8,5 L8,6 L9,6 L9,7 L10,7 L10,8 L11,8 L11,9 L12,9 L12,11 L13,11 L13,12 L14,12 L14,13 L15,13 L15,14 L16,14 L16,15 L17,15 L17,16 L18,16 L18,17 L19,17 L19,19 L20,19 L20,20 L21,20 L21,21 L22,21 L22,22 L23,22 L23,23 L24,23 L24,24 L25,24 L25,23 L26,23 L26,22 L27,22 L27,21 L28,21 L28,20 L29,20 L29,19 L30,19 L30,18 L31,18 L31,17 L32,17 L32,16 L33,16 L33,15 L34,15 L34,14 L35,14 L35,13 L54,13 L54,14 L55,14 L55,18 L54,18 L54,19 L37,19 L37,20 L36,20 L36,21 L35,21 L35,22 L34,22 L34,23 L33,23 L33,24 L32,24 L32,25 L31,25 L31,26 L30,26 L30,27 L29,27 L29,28 L28,28 L28,29 L27,29 L27,30 L26,30 L26,31 L25,31 L25,32 L23,32 L23,31 L22,31 L22,30 L21,30 L21,29 L20,29 L20,28 L19,28 L19,27 L18,27 L18,26 L17,26 L17,25 L16,25 L16,24 L15,24 L15,22 L14,22 L14,21 L13,21 L13,20 L12,20 L12,19 L11,19 L11,18 L10,18 L10,17 L9,17 L9,16 L8,16 L8,14 L7,14 L7,13 L6,13 L6,12 L5,12 L5,11 L4,11 L4,10 L3,10 L3,9 L2,9 L2,8 L1,8 L1,9 L0,9 L0,10 L-1,10 L-1,11 L-2,11 L-2,12 L-3,12 L-3,13 L-4,13 L-4,14 L-5,14 L-5,15 L-6,15 L-6,16 L-7,16 L-7,17 L-8,17 L-8,18 L-9,18 L-9,19 L-25,19 L-25,18 L-26,18 L-26,14 L-25,14 L-25,13 L-12,13 L-12,12 L-11,12 L-11,11 L-10,11 L-10,10 L-9,10 L-9,9 L-8,9 L-8,8 L-7,8 L-7,7 L-6,7 L-6,6 L-5,6 L-5,5 L-4,5 L-4,4 L-3,4 L-3,3 L-2,3 L-2,2 L-1,2 L-1,1 L0,1 Z " fill="#040000" transform="translate(106,51)"/>
<path d="M0,0 L6,0 L6,8 L5,8 L5,5 L4,5 L4,3 L3,3 L3,2 L2,2 L2,1 L0,1 Z " fill="#C71D1D" transform="translate(194,0)"/>
<path d="M0,0 L6,0 L6,1 L4,1 L4,2 L3,2 L3,3 L2,3 L2,5 L1,5 L1,6 L0,6 Z " fill="#D11E1E" transform="translate(0,0)"/>
</svg>
